<svg width="83" height="83" viewBox="0 0 83 83" fill="none" xmlns="http://www.w3.org/2000/svg">
        <path d="M65.7083 24.2083V13.8333C65.7083 12.9161 65.344 12.0365 64.6954 11.3879C64.0469 10.7394 63.1672 10.375 62.25 10.375H17.2917C15.4573 10.375 13.698 11.1037 12.4008 12.4008C11.1037 13.698 10.375 15.4573 10.375 17.2917C10.375 19.1261 11.1037 20.8854 12.4008 22.1825C13.698 23.4796 15.4573 24.2083 17.2917 24.2083H69.1667C70.0839 24.2083 70.9635 24.5727 71.6121 25.2213C72.2606 25.8698 72.625 26.7495 72.625 27.6667V41.5M72.625 41.5H62.25C60.4156 41.5 58.6563 42.2287 57.3592 43.5258C56.0621 44.823 55.3333 46.5823 55.3333 48.4167C55.3333 50.2511 56.0621 52.0104 57.3592 53.3075C58.6563 54.6046 60.4156 55.3333 62.25 55.3333H72.625C73.5422 55.3333 74.4219 54.969 75.0704 54.3204C75.719 53.6718 76.0833 52.7922 76.0833 51.875V44.9583C76.0833 44.0411 75.719 43.1615 75.0704 42.5129C74.4219 41.8644 73.5422 41.5 72.625 41.5Z" stroke="#7212BC" stroke-width="6.3" stroke-linecap="round" stroke-linejoin="round"/>
        <path d="M10.375 17.2916V65.7083C10.375 67.5427 11.1037 69.302 12.4008 70.5991C13.698 71.8962 15.4573 72.625 17.2917 72.625H69.1667C70.0839 72.625 70.9635 72.2606 71.6121 71.612C72.2606 70.9635 72.625 70.0838 72.625 69.1666V55.3333" stroke="#7212BC" stroke-width="6.3" stroke-linecap="round" stroke-linejoin="round"/>
        </svg>
